<svg width="414" height="553" viewBox="0 0 414 553" fill="none" xmlns="http://www.w3.org/2000/svg">
<mask id="mask0" mask-type="alpha" maskUnits="userSpaceOnUse" x="0" y="0" width="414" height="553">
<rect width="414" height="553" rx="55" transform="matrix(1 0 0 -1 0 553)" fill="white"/>
</mask>
<g mask="url(#mask0)">
<path fill-rule="evenodd" clip-rule="evenodd" d="M67.5781 55.4187C66.8854 51.1646 63.2073 48 58.8542 48C53.9719 48 50 51.9719 50 56.8542C50 61.1844 53.1323 64.8469 57.4177 65.5708C58.1021 69.776 61.75 73 66.1458 73C71.0281 73 75 69.0281 75 64.1458C75 59.7531 71.7802 56.1062 67.5781 55.4187ZM51.0417 56.8542C51.0417 52.5458 54.5458 49.0417 58.8542 49.0417C62.6187 49.0417 65.8135 51.7229 66.5115 55.3104C66.3896 55.3052 66.2688 55.2917 66.1458 55.2917C62.3438 55.2917 59.1031 57.7062 57.851 61.0781C57.6323 60.9729 57.4292 60.8656 57.2552 60.75C57.0208 60.5885 56.7823 60.3906 56.5562 60.174C56.3552 59.9729 56.1667 59.7438 55.9854 59.4813C55.7969 59.199 55.6562 58.9406 55.551 58.6781C55.5156 58.5969 55.499 58.5021 55.4677 58.4167H58.8792C59.1667 58.4167 59.4 58.1833 59.4 57.8958C59.4 57.6083 59.1667 57.375 58.8792 57.375H55.2104C55.1896 57.1948 55.1771 57.0229 55.1771 56.8542C55.1771 56.6938 55.1896 56.5219 55.2104 56.3333H59.926C60.2135 56.3333 60.4469 56.1 60.4469 55.8125C60.4469 55.525 60.2135 55.2917 59.926 55.2917H55.4688C55.501 55.201 55.5188 55.1042 55.5573 55.0156C55.6562 54.7677 55.7969 54.5094 55.9812 54.2333C56.1667 53.9656 56.3552 53.7365 56.5469 53.5427C56.7833 53.3177 57.0219 53.1208 57.2469 52.9635C57.4854 52.8063 57.751 52.6635 58.0479 52.5344C58.3552 52.4115 58.6479 52.3208 58.9281 52.2604C59.6062 52.1365 60.1135 52.1302 60.8448 52.2615C61.1302 52.3063 61.399 52.1229 61.45 51.8417C61.501 51.5594 61.3125 51.2875 61.0302 51.2365C60.1729 51.0823 59.5542 51.0854 58.725 51.2396C58.3719 51.3146 58.024 51.4229 57.6469 51.5729C57.2792 51.7323 56.9594 51.9031 56.6615 52.1021C56.3833 52.2958 56.1021 52.5281 55.8187 52.7979C55.5729 53.0448 55.3458 53.3198 55.1198 53.6479C54.8896 53.9917 54.7167 54.3125 54.5948 54.6156C54.5042 54.826 54.4281 55.0542 54.3604 55.2917H53.6458C53.3583 55.2917 53.125 55.525 53.125 55.8125C53.125 56.1 53.3583 56.3333 53.6458 56.3333H54.1615C54.1448 56.5115 54.1354 56.6823 54.1354 56.8542C54.1354 57.0312 54.1698 57.201 54.1865 57.375H53.6458C53.3583 57.375 53.125 57.6083 53.125 57.8958C53.125 58.1833 53.3583 58.4167 53.6458 58.4167H54.3583C54.426 58.649 54.501 58.874 54.5896 59.0792C54.7167 59.3969 54.8896 59.7167 55.124 60.0667C55.3458 60.3885 55.5729 60.6635 55.8281 60.9177C56.1031 61.1802 56.3833 61.4125 56.6708 61.6104C56.9333 61.7854 57.224 61.9396 57.5448 62.0844C57.3844 62.7479 57.2917 63.4354 57.2917 64.1458C57.2917 64.2677 57.3052 64.3854 57.3104 64.5063C53.6958 63.7833 51.0417 60.6 51.0417 56.8542ZM66.1458 71.9583C62.1885 71.9583 58.9177 68.999 58.4094 65.1792C58.4115 65.1615 58.4208 65.1458 58.4208 65.1271C58.4208 65.0469 58.401 64.9729 58.3708 64.9042C58.3479 64.6552 58.3333 64.4021 58.3333 64.1458C58.3333 59.8375 61.8375 56.3333 66.1458 56.3333C70.4542 56.3333 73.9583 59.8375 73.9583 64.1458C73.9583 68.4542 70.4542 71.9583 66.1458 71.9583Z" fill="white"/>
<path fill-rule="evenodd" clip-rule="evenodd" d="M68.9885 64.5667C68.7312 64.275 68.4313 64.0448 68.0958 63.8823C67.7417 63.7115 67.3656 63.625 66.9792 63.625H66.6667V59.4583H66.9792C67.2083 59.4583 67.4313 59.5104 67.6427 59.6115C67.8531 59.7135 68.0427 59.8583 68.2073 60.0469C68.376 60.2385 68.5094 60.4615 68.6021 60.7125C68.7031 60.9823 69.0062 61.1187 69.2719 61.0187C69.5417 60.9177 69.6792 60.6177 69.5781 60.3479C69.4406 59.9792 69.2417 59.6448 68.9885 59.3583C68.7312 59.0667 68.4313 58.8365 68.0958 58.674C67.7417 58.5031 67.3656 58.4167 66.9792 58.4167H66.6667V57.8958C66.6667 57.6083 66.4333 57.375 66.1458 57.375C65.8583 57.375 65.625 57.6083 65.625 57.8958V58.4167H65.3125C64.925 58.4167 64.55 58.5031 64.1958 58.674C63.8604 58.8365 63.5604 59.0667 63.3042 59.3573C63.05 59.6448 62.8521 59.9792 62.7146 60.3479C62.5719 60.7281 62.5 61.1292 62.5 61.5417C62.5 61.9542 62.5719 62.3552 62.7135 62.7354C62.851 63.1042 63.05 63.4385 63.3031 63.725C63.5604 64.0167 63.8604 64.2469 64.1958 64.4094C64.55 64.5802 64.926 64.6667 65.3125 64.6667H65.625V68.8333H65.3125C65.0833 68.8333 64.8604 68.7812 64.649 68.6802C64.4385 68.5781 64.249 68.4333 64.0844 68.2448C63.9156 68.0531 63.7823 67.8302 63.6896 67.5792C63.5885 67.3094 63.2875 67.1708 63.0198 67.2729C62.75 67.374 62.6125 67.674 62.7135 67.9438C62.851 68.3125 63.05 68.6469 63.3031 68.9333C63.5604 69.225 63.8604 69.4552 64.1958 69.6177C64.55 69.7885 64.926 69.875 65.3125 69.875H65.625V70.3958C65.625 70.6833 65.8583 70.9167 66.1458 70.9167C66.4333 70.9167 66.6667 70.6833 66.6667 70.3958V69.875H66.9792C67.3667 69.875 67.7417 69.7885 68.0958 69.6177C68.4313 69.4552 68.7313 69.225 68.9875 68.9344C69.2417 68.6469 69.4396 68.3125 69.5771 67.9438C69.7198 67.5635 69.7917 67.1625 69.7917 66.75C69.7917 66.3375 69.7198 65.9365 69.5781 65.5562C69.4406 65.1875 69.2417 64.8542 68.9885 64.5667ZM65.3125 63.625C65.0833 63.625 64.8604 63.5729 64.649 63.4719C64.4385 63.3698 64.249 63.225 64.0844 63.0365C63.9156 62.8448 63.7823 62.6219 63.6896 62.3708C63.5917 62.1073 63.5417 61.8281 63.5417 61.5417C63.5417 61.2552 63.5917 60.976 63.6906 60.7125C63.7833 60.4625 63.9167 60.2385 64.0854 60.0458C64.25 59.8583 64.4396 59.7135 64.649 59.6115C64.8604 59.5104 65.0833 59.4583 65.3125 59.4583H65.625V63.625H65.3125ZM68.601 67.5792C68.5083 67.8292 68.375 68.0531 68.2062 68.2458C68.0417 68.4333 67.8521 68.5781 67.6427 68.6802C67.4312 68.7812 67.2083 68.8333 66.9792 68.8333H66.6667V64.6667H66.9792C67.2083 64.6667 67.4312 64.7188 67.6427 64.8198C67.8531 64.9219 68.0427 65.0667 68.2073 65.2552C68.376 65.4469 68.5094 65.6698 68.6021 65.9208C68.7 66.1844 68.75 66.4635 68.75 66.75C68.75 67.0365 68.7 67.3156 68.601 67.5792Z" fill="white"/>
<path fill-rule="evenodd" clip-rule="evenodd" d="M350.435 48.113C349.33 48.258 348.277 48.559 347.288 48.982C347.268 48.989 347.25 48.998 347.232 49.007C346.283 49.419 345.4 49.949 344.598 50.579C344.595 50.583 344.59 50.583 344.586 50.587C344.586 50.588 344.585 50.589 344.585 50.59C343.844 51.175 343.175 51.844 342.59 52.585C342.589 52.586 342.587 52.586 342.586 52.587C342.583 52.59 342.582 52.595 342.578 52.599C341.948 53.401 341.418 54.283 341.006 55.232C340.998 55.251 340.989 55.268 340.982 55.288C340.559 56.277 340.258 57.33 340.113 58.436C340.094 58.579 340.138 58.722 340.233 58.831C340.328 58.938 340.465 59 340.609 59H346.713C346.937 59 347.133 58.852 347.194 58.637C347.664 56.984 348.983 55.664 350.636 55.194C350.852 55.133 351 54.937 351 54.713V48.609C351 48.465 350.938 48.328 350.83 48.233C350.722 48.139 350.58 48.093 350.435 48.113ZM350 51.293L348.343 49.636C348.877 49.447 349.431 49.298 350 49.193V51.293ZM341.636 56.343L343.293 58H341.193C341.298 57.431 341.447 56.877 341.636 56.343ZM344.707 58L342.051 55.344C342.32 54.768 342.637 54.221 342.998 53.706L346.633 57.34C346.526 57.553 346.429 57.773 346.349 58H344.707ZM347.174 56.467L343.611 52.904C344.005 52.438 344.438 52.006 344.904 51.611L348.467 55.173C347.973 55.537 347.537 55.973 347.174 56.467ZM349.339 54.632L345.705 50.998C346.221 50.637 346.768 50.32 347.344 50.051L350 52.707V54.348C349.773 54.429 349.553 54.525 349.339 54.632Z" fill="white"/>
<path fill-rule="evenodd" clip-rule="evenodd" d="M353.565 48.113C353.419 48.093 353.278 48.139 353.17 48.233C353.062 48.328 353 48.466 353 48.609V54.713C353 54.937 353.148 55.133 353.363 55.193C355.017 55.664 356.336 56.983 356.805 58.636C356.867 58.852 357.063 59 357.287 59H363.391C363.535 59 363.672 58.938 363.767 58.83C363.862 58.722 363.906 58.578 363.887 58.435C363.185 53.06 358.94 48.815 353.565 48.113ZM357.651 58C357.049 56.307 355.693 54.951 354 54.348V49.193C358.47 50.014 361.985 53.529 362.807 58H357.651Z" fill="white"/>
<path fill-rule="evenodd" clip-rule="evenodd" d="M350.637 64.807C348.983 64.336 347.664 63.017 347.195 61.364C347.133 61.148 346.937 61 346.713 61H340.609C340.465 61 340.328 61.062 340.233 61.17C340.138 61.278 340.094 61.422 340.113 61.565C340.815 66.941 345.059 71.185 350.435 71.887C350.457 71.89 350.478 71.891 350.5 71.891C350.621 71.891 350.738 71.847 350.83 71.767C350.938 71.672 351 71.535 351 71.391V65.287C351 65.063 350.852 64.867 350.637 64.807ZM350 70.807C345.53 69.985 342.015 66.471 341.193 62H346.348C346.95 63.693 348.306 65.049 349.999 65.652V70.807H350Z" fill="white"/>
<path fill-rule="evenodd" clip-rule="evenodd" d="M363.391 61H357.287C357.063 61 356.867 61.148 356.806 61.363C356.336 63.016 355.017 64.336 353.364 64.806C353.148 64.867 353 65.063 353 65.287V71.391C353 71.535 353.062 71.672 353.17 71.767C353.262 71.847 353.379 71.891 353.5 71.891C353.521 71.891 353.543 71.89 353.565 71.887C358.94 71.185 363.185 66.941 363.887 61.565C363.906 61.422 363.862 61.279 363.767 61.17C363.672 61.062 363.535 61 363.391 61ZM354 70.807V65.653C355.693 65.049 357.049 63.694 357.651 62.001H362.806C361.985 66.471 358.47 69.985 354 70.807Z" fill="white"/>
<path d="M152.266 45.2375V53.003H161.396V55.452H152.266V65H149.259V42.7885H162.946V45.2375H152.266ZM175.283 55.4365C175.283 54.7958 175.19 54.212 175.004 53.685C174.829 53.1477 174.565 52.6878 174.214 52.3055C173.873 51.9128 173.454 51.6132 172.958 51.4065C172.462 51.1895 171.899 51.081 171.269 51.081C169.946 51.081 168.897 51.4685 168.122 52.2435C167.358 53.0082 166.882 54.0725 166.696 55.4365H175.283ZM177.515 62.799C177.174 63.2123 176.766 63.574 176.291 63.884C175.816 64.1837 175.304 64.4317 174.756 64.628C174.219 64.8243 173.661 64.969 173.082 65.062C172.504 65.1653 171.93 65.217 171.362 65.217C170.277 65.217 169.275 65.0362 168.355 64.6745C167.446 64.3025 166.655 63.7652 165.983 63.0625C165.322 62.3495 164.805 61.4712 164.433 60.4275C164.061 59.3838 163.875 58.1852 163.875 56.8315C163.875 55.7362 164.041 54.7132 164.371 53.7625C164.712 52.8118 165.198 51.9903 165.828 51.298C166.459 50.5953 167.229 50.0477 168.138 49.655C169.047 49.252 170.07 49.0505 171.207 49.0505C172.147 49.0505 173.015 49.2107 173.811 49.531C174.617 49.841 175.309 50.2957 175.888 50.895C176.477 51.484 176.937 52.2177 177.267 53.096C177.598 53.964 177.763 54.956 177.763 56.072C177.763 56.506 177.717 56.7953 177.624 56.94C177.531 57.0847 177.355 57.157 177.097 57.157H166.603C166.634 58.149 166.769 59.0118 167.006 59.7455C167.254 60.4792 167.595 61.094 168.029 61.59C168.463 62.0757 168.98 62.4425 169.579 62.6905C170.179 62.9282 170.85 63.047 171.594 63.047C172.287 63.047 172.881 62.9695 173.377 62.8145C173.883 62.6492 174.317 62.4735 174.679 62.2875C175.041 62.1015 175.34 61.931 175.578 61.776C175.826 61.6107 176.038 61.528 176.213 61.528C176.441 61.528 176.616 61.6158 176.74 61.7915L177.515 62.799ZM183.927 61.218C184.433 61.9 184.986 62.3805 185.585 62.6595C186.195 62.9385 186.861 63.078 187.585 63.078C189.062 63.078 190.194 62.5562 190.979 61.5125C191.765 60.4688 192.157 58.9137 192.157 56.847C192.157 54.925 191.806 53.5145 191.103 52.6155C190.411 51.7062 189.419 51.2515 188.127 51.2515C187.228 51.2515 186.443 51.4582 185.771 51.8715C185.11 52.2848 184.495 52.8687 183.927 53.623V61.218ZM183.927 51.5615C184.588 50.7968 185.332 50.1872 186.159 49.7325C186.996 49.2778 187.957 49.0505 189.042 49.0505C189.961 49.0505 190.788 49.2262 191.522 49.5775C192.266 49.9288 192.896 50.4403 193.413 51.112C193.929 51.7733 194.322 52.5793 194.591 53.53C194.87 54.4807 195.009 55.5502 195.009 56.7385C195.009 58.0095 194.854 59.1668 194.544 60.2105C194.234 61.2542 193.785 62.148 193.196 62.892C192.617 63.6257 191.909 64.1992 191.072 64.6125C190.235 65.0155 189.295 65.217 188.251 65.217C187.218 65.217 186.345 65.0258 185.632 64.6435C184.929 64.2508 184.314 63.698 183.787 62.985L183.648 64.411C183.565 64.8037 183.327 65 182.935 65H181.152V42.1685H183.927V51.5615ZM201.118 52.445C201.614 51.3703 202.224 50.5333 202.947 49.934C203.671 49.3243 204.554 49.0195 205.598 49.0195C205.929 49.0195 206.244 49.0557 206.543 49.128C206.853 49.2003 207.127 49.314 207.365 49.469L207.163 51.5305C207.101 51.7888 206.946 51.918 206.698 51.918C206.554 51.918 206.342 51.887 206.063 51.825C205.784 51.763 205.469 51.732 205.117 51.732C204.621 51.732 204.177 51.8043 203.784 51.949C203.402 52.0937 203.056 52.3107 202.746 52.6C202.446 52.879 202.172 53.2303 201.924 53.654C201.687 54.0673 201.47 54.5427 201.273 55.08V65H198.499V49.2985H200.08C200.38 49.2985 200.586 49.3553 200.7 49.469C200.814 49.5827 200.891 49.779 200.932 50.058L201.118 52.445ZM222.702 49.2985V65H221.059C220.667 65 220.419 64.8088 220.315 64.4265L220.098 62.737C219.416 63.4913 218.652 64.101 217.804 64.566C216.957 65.0207 215.986 65.248 214.89 65.248C214.033 65.248 213.273 65.1085 212.612 64.8295C211.961 64.5402 211.413 64.1372 210.969 63.6205C210.525 63.1038 210.189 62.4787 209.961 61.745C209.744 61.0113 209.636 60.2002 209.636 59.3115V49.2985H212.395V59.3115C212.395 60.4998 212.664 61.4195 213.201 62.0705C213.749 62.7215 214.58 63.047 215.696 63.047C216.513 63.047 217.272 62.8558 217.975 62.4735C218.688 62.0808 219.344 61.5435 219.943 60.8615V49.2985H222.702ZM235.587 57.932C234.316 57.9733 233.231 58.0767 232.332 58.242C231.443 58.397 230.714 58.6037 230.146 58.862C229.588 59.1203 229.18 59.4252 228.922 59.7765C228.674 60.1278 228.55 60.5205 228.55 60.9545C228.55 61.3678 228.617 61.7243 228.751 62.024C228.885 62.3237 229.066 62.5717 229.294 62.768C229.531 62.954 229.805 63.0935 230.115 63.1865C230.435 63.2692 230.776 63.3105 231.138 63.3105C231.624 63.3105 232.068 63.264 232.471 63.171C232.874 63.0677 233.251 62.923 233.603 62.737C233.964 62.551 234.305 62.3288 234.626 62.0705C234.956 61.8122 235.277 61.5177 235.587 61.187V57.932ZM226.674 51.515C227.542 50.678 228.477 50.0528 229.48 49.6395C230.482 49.2262 231.593 49.0195 232.812 49.0195C233.69 49.0195 234.471 49.1642 235.153 49.4535C235.835 49.7428 236.408 50.1458 236.873 50.6625C237.338 51.1792 237.689 51.8043 237.927 52.538C238.165 53.2717 238.284 54.0777 238.284 54.956V65H237.059C236.79 65 236.584 64.9587 236.439 64.876C236.294 64.783 236.181 64.6073 236.098 64.349L235.788 62.861C235.375 63.2433 234.972 63.5843 234.579 63.884C234.186 64.1733 233.773 64.4213 233.339 64.628C232.905 64.8243 232.44 64.9742 231.944 65.0775C231.458 65.1912 230.916 65.248 230.317 65.248C229.707 65.248 229.133 65.1653 228.596 65C228.059 64.8243 227.589 64.566 227.186 64.225C226.793 63.884 226.478 63.4552 226.24 62.9385C226.013 62.4115 225.899 61.7915 225.899 61.0785C225.899 60.4585 226.07 59.8643 226.411 59.296C226.752 58.7173 227.304 58.2058 228.069 57.7615C228.834 57.3172 229.831 56.9555 231.061 56.6765C232.29 56.3872 233.799 56.2218 235.587 56.1805V54.956C235.587 53.7367 235.323 52.817 234.796 52.197C234.269 51.5667 233.499 51.2515 232.487 51.2515C231.805 51.2515 231.231 51.3393 230.766 51.515C230.311 51.6803 229.914 51.8715 229.573 52.0885C229.242 52.2952 228.953 52.4863 228.705 52.662C228.467 52.8273 228.229 52.91 227.992 52.91C227.806 52.91 227.645 52.8635 227.511 52.7705C227.377 52.6672 227.263 52.5432 227.17 52.3985L226.674 51.515ZM245.106 52.445C245.602 51.3703 246.211 50.5333 246.935 49.934C247.658 49.3243 248.542 49.0195 249.585 49.0195C249.916 49.0195 250.231 49.0557 250.531 49.128C250.841 49.2003 251.115 49.314 251.352 49.469L251.151 51.5305C251.089 51.7888 250.934 51.918 250.686 51.918C250.541 51.918 250.329 51.887 250.05 51.825C249.771 51.763 249.456 51.732 249.105 51.732C248.609 51.732 248.164 51.8043 247.772 51.949C247.389 52.0937 247.043 52.3107 246.733 52.6C246.434 52.879 246.16 53.2303 245.912 53.654C245.674 54.0673 245.457 54.5427 245.261 55.08V65H242.486V49.2985H244.067C244.367 49.2985 244.574 49.3553 244.687 49.469C244.801 49.5827 244.878 49.779 244.92 50.058L245.106 52.445ZM267.325 49.2985L258.568 69.6345C258.475 69.8412 258.356 70.0065 258.211 70.1305C258.077 70.2545 257.865 70.3165 257.576 70.3165H255.53L258.397 64.0855L251.918 49.2985H254.305C254.543 49.2985 254.729 49.3605 254.863 49.4845C255.008 49.5982 255.106 49.7273 255.158 49.872L259.358 59.761C259.524 60.195 259.663 60.6497 259.777 61.125C259.921 60.6393 260.076 60.1795 260.242 59.7455L264.318 49.872C264.38 49.7067 264.484 49.5723 264.628 49.469C264.783 49.3553 264.954 49.2985 265.14 49.2985H267.325Z" fill="white"/>
</g>
<path d="M295.174 307.86C295.654 307.86 296.032 307.998 296.308 308.274C296.596 308.538 296.74 308.892 296.74 309.336V312H278.884V310.524C278.884 310.224 278.944 309.912 279.064 309.588C279.196 309.252 279.4 308.952 279.676 308.688L287.578 300.768C288.238 300.096 288.826 299.454 289.342 298.842C289.87 298.23 290.308 297.624 290.656 297.024C291.004 296.424 291.268 295.818 291.448 295.206C291.64 294.582 291.736 293.928 291.736 293.244C291.736 292.62 291.646 292.074 291.466 291.606C291.286 291.126 291.028 290.724 290.692 290.4C290.368 290.076 289.972 289.836 289.504 289.68C289.048 289.512 288.532 289.428 287.956 289.428C287.428 289.428 286.936 289.506 286.48 289.662C286.036 289.806 285.64 290.016 285.292 290.292C284.944 290.556 284.65 290.868 284.41 291.228C284.17 291.588 283.99 291.984 283.87 292.416C283.666 292.968 283.402 293.334 283.078 293.514C282.754 293.694 282.286 293.736 281.674 293.64L279.334 293.226C279.514 291.978 279.862 290.886 280.378 289.95C280.894 289.002 281.536 288.216 282.304 287.592C283.084 286.956 283.972 286.482 284.968 286.17C285.976 285.846 287.056 285.684 288.208 285.684C289.408 285.684 290.506 285.864 291.502 286.224C292.498 286.572 293.35 287.07 294.058 287.718C294.766 288.366 295.318 289.146 295.714 290.058C296.11 290.97 296.308 291.984 296.308 293.1C296.308 294.06 296.164 294.948 295.876 295.764C295.6 296.58 295.222 297.36 294.742 298.104C294.274 298.848 293.722 299.568 293.086 300.264C292.45 300.96 291.784 301.668 291.088 302.388L285.22 308.382C285.784 308.214 286.342 308.088 286.894 308.004C287.458 307.908 287.992 307.86 288.496 307.86H295.174ZM300.522 316.41C300.306 316.23 300.198 316.008 300.198 315.744C300.198 315.648 300.228 315.54 300.288 315.42C300.36 315.3 300.444 315.192 300.54 315.096C300.672 314.952 300.834 314.772 301.026 314.556C301.218 314.352 301.41 314.112 301.602 313.836C301.794 313.572 301.968 313.278 302.124 312.954C302.292 312.642 302.418 312.306 302.502 311.946C302.118 311.946 301.77 311.88 301.458 311.748C301.146 311.604 300.876 311.412 300.648 311.172C300.432 310.932 300.258 310.65 300.126 310.326C300.006 310.002 299.946 309.648 299.946 309.264C299.946 308.928 300.006 308.616 300.126 308.328C300.258 308.028 300.438 307.77 300.666 307.554C300.894 307.326 301.17 307.152 301.494 307.032C301.818 306.9 302.172 306.834 302.556 306.834C303.012 306.834 303.408 306.918 303.744 307.086C304.092 307.242 304.374 307.464 304.59 307.752C304.818 308.028 304.986 308.352 305.094 308.724C305.214 309.084 305.274 309.468 305.274 309.876C305.274 310.452 305.184 311.058 305.004 311.694C304.836 312.33 304.584 312.966 304.248 313.602C303.912 314.238 303.492 314.856 302.988 315.456C302.496 316.056 301.932 316.608 301.296 317.112L300.522 316.41ZM316.232 295.422L315.332 296.538C315.836 296.286 316.376 296.094 316.952 295.962C317.54 295.818 318.17 295.746 318.842 295.746C319.826 295.746 320.78 295.908 321.704 296.232C322.64 296.556 323.462 297.048 324.17 297.708C324.878 298.356 325.448 299.166 325.88 300.138C326.312 301.11 326.528 302.244 326.528 303.54C326.528 304.752 326.306 305.892 325.862 306.96C325.418 308.016 324.794 308.94 323.99 309.732C323.186 310.524 322.214 311.148 321.074 311.604C319.946 312.06 318.698 312.288 317.33 312.288C315.938 312.288 314.69 312.066 313.586 311.622C312.482 311.178 311.54 310.56 310.76 309.768C309.98 308.964 309.38 308.004 308.96 306.888C308.552 305.76 308.348 304.512 308.348 303.144C308.348 301.92 308.594 300.666 309.086 299.382C309.59 298.086 310.364 296.742 311.408 295.35L317.618 287.016C317.834 286.728 318.146 286.482 318.554 286.278C318.974 286.074 319.454 285.972 319.994 285.972H323.954L316.232 295.422ZM317.24 308.652C317.948 308.652 318.596 308.532 319.184 308.292C319.784 308.052 320.294 307.716 320.714 307.284C321.146 306.852 321.482 306.348 321.722 305.772C321.962 305.184 322.082 304.548 322.082 303.864C322.082 303.12 321.968 302.454 321.74 301.866C321.512 301.266 321.188 300.762 320.768 300.354C320.348 299.934 319.844 299.616 319.256 299.4C318.668 299.184 318.02 299.076 317.312 299.076C316.604 299.076 315.962 299.196 315.386 299.436C314.81 299.676 314.318 300.012 313.91 300.444C313.502 300.864 313.184 301.368 312.956 301.956C312.728 302.532 312.614 303.156 312.614 303.828C312.614 304.548 312.71 305.208 312.902 305.808C313.106 306.396 313.4 306.9 313.784 307.32C314.18 307.74 314.666 308.07 315.242 308.31C315.818 308.538 316.484 308.652 317.24 308.652ZM346.349 308.67V312H331.949V308.67H337.223V293.496C337.223 292.896 337.241 292.278 337.277 291.642L333.533 294.774C333.317 294.942 333.101 295.05 332.885 295.098C332.681 295.134 332.483 295.134 332.291 295.098C332.111 295.062 331.949 295.002 331.805 294.918C331.661 294.822 331.553 294.72 331.481 294.612L330.077 292.686L338.015 285.936H341.669V308.67H346.349ZM355.91 295.422C356.486 295.302 357.038 295.218 357.566 295.17C358.094 295.11 358.604 295.08 359.096 295.08C360.464 295.08 361.67 295.284 362.714 295.692C363.758 296.1 364.634 296.664 365.342 297.384C366.05 298.104 366.584 298.95 366.944 299.922C367.304 300.882 367.484 301.92 367.484 303.036C367.484 304.416 367.238 305.676 366.746 306.816C366.266 307.956 365.594 308.934 364.73 309.75C363.866 310.554 362.84 311.178 361.652 311.622C360.476 312.066 359.192 312.288 357.8 312.288C356.984 312.288 356.21 312.204 355.478 312.036C354.746 311.868 354.056 311.646 353.408 311.37C352.772 311.082 352.178 310.758 351.626 310.398C351.086 310.026 350.6 309.636 350.168 309.228L351.536 307.338C351.824 306.93 352.202 306.726 352.67 306.726C352.97 306.726 353.276 306.822 353.588 307.014C353.9 307.206 354.254 307.416 354.65 307.644C355.058 307.872 355.532 308.082 356.072 308.274C356.624 308.466 357.284 308.562 358.052 308.562C358.868 308.562 359.588 308.43 360.212 308.166C360.836 307.902 361.352 307.536 361.76 307.068C362.18 306.588 362.492 306.024 362.696 305.376C362.912 304.716 363.02 304.002 363.02 303.234C363.02 301.818 362.606 300.714 361.778 299.922C360.962 299.118 359.75 298.716 358.142 298.716C356.906 298.716 355.64 298.944 354.344 299.4L351.572 298.608L353.732 285.972H366.584V287.862C366.584 288.498 366.386 289.014 365.99 289.41C365.594 289.806 364.922 290.004 363.974 290.004H356.828L355.91 295.422Z" fill="white"/>
<path d="M271.679 299.263C272.315 299.179 272.795 298.966 273.119 298.624C273.449 298.276 273.614 297.823 273.614 297.265C273.614 297.037 273.572 296.839 273.488 296.671C273.41 296.497 273.296 296.344 273.146 296.212C273.002 296.08 272.831 295.966 272.633 295.87C272.435 295.774 272.219 295.684 271.985 295.6L271.679 299.263ZM271.103 289.75C270.767 289.792 270.482 289.864 270.248 289.966C270.014 290.062 269.822 290.182 269.672 290.326C269.522 290.47 269.411 290.632 269.339 290.812C269.273 290.992 269.24 291.181 269.24 291.379C269.24 291.607 269.279 291.808 269.357 291.982C269.441 292.15 269.552 292.303 269.69 292.441C269.834 292.573 270.002 292.693 270.194 292.801C270.386 292.903 270.596 292.999 270.824 293.089L271.103 289.75ZM272.156 293.521C272.588 293.653 273.017 293.8 273.443 293.962C273.869 294.118 274.25 294.322 274.586 294.574C274.928 294.826 275.204 295.141 275.414 295.519C275.624 295.891 275.729 296.359 275.729 296.923C275.729 297.481 275.636 298.006 275.45 298.498C275.264 298.984 274.991 299.416 274.631 299.794C274.271 300.166 273.83 300.472 273.308 300.712C272.786 300.946 272.189 301.084 271.517 301.126L271.409 302.449C271.403 302.587 271.343 302.713 271.229 302.827C271.121 302.947 270.983 303.007 270.815 303.007H269.996L270.158 301.081C269.456 300.985 268.796 300.793 268.178 300.505C267.56 300.217 267.035 299.86 266.603 299.434L267.287 298.417C267.347 298.327 267.425 298.255 267.521 298.201C267.623 298.141 267.731 298.111 267.845 298.111C267.977 298.111 268.118 298.159 268.268 298.255C268.418 298.345 268.589 298.453 268.781 298.579C268.973 298.699 269.192 298.822 269.438 298.948C269.684 299.074 269.975 299.167 270.311 299.227L270.644 295.204C270.218 295.084 269.795 294.943 269.375 294.781C268.961 294.619 268.586 294.406 268.25 294.142C267.92 293.872 267.653 293.533 267.449 293.125C267.245 292.717 267.143 292.207 267.143 291.595C267.143 291.139 267.233 290.695 267.413 290.263C267.593 289.825 267.857 289.435 268.205 289.093C268.559 288.751 268.991 288.469 269.501 288.247C270.011 288.025 270.596 287.899 271.256 287.869L271.355 286.735C271.367 286.591 271.427 286.462 271.535 286.348C271.643 286.234 271.784 286.177 271.958 286.177H272.777L272.633 287.941C273.269 288.043 273.818 288.226 274.28 288.49C274.742 288.748 275.141 289.039 275.477 289.363L274.937 290.182C274.859 290.302 274.778 290.392 274.694 290.452C274.61 290.512 274.508 290.542 274.388 290.542C274.298 290.542 274.19 290.515 274.064 290.461C273.938 290.401 273.797 290.332 273.641 290.254C273.485 290.17 273.308 290.086 273.11 290.002C272.918 289.918 272.705 289.849 272.471 289.795L272.156 293.521Z" fill="white"/>
<path d="M283.46 127.226C283.64 125.978 283.988 124.886 284.504 123.95C285.02 123.002 285.662 122.216 286.43 121.592C287.21 120.956 288.098 120.482 289.094 120.17C290.102 119.846 291.182 119.684 292.334 119.684C293.534 119.684 294.614 119.858 295.574 120.206C296.546 120.542 297.374 121.016 298.058 121.628C298.742 122.228 299.264 122.936 299.624 123.752C299.996 124.568 300.182 125.45 300.182 126.398C300.182 127.226 300.086 127.958 299.894 128.594C299.714 129.218 299.45 129.764 299.102 130.232C298.754 130.7 298.322 131.096 297.806 131.42C297.29 131.744 296.708 132.014 296.06 132.23C297.62 132.722 298.784 133.472 299.552 134.48C300.32 135.488 300.704 136.754 300.704 138.278C300.704 139.574 300.464 140.72 299.984 141.716C299.504 142.712 298.856 143.552 298.04 144.236C297.224 144.908 296.276 145.418 295.196 145.766C294.128 146.114 292.994 146.288 291.794 146.288C290.486 146.288 289.346 146.138 288.374 145.838C287.402 145.538 286.556 145.094 285.836 144.506C285.116 143.918 284.504 143.198 284 142.346C283.496 141.494 283.064 140.51 282.704 139.394L284.666 138.584C285.182 138.368 285.662 138.314 286.106 138.422C286.562 138.518 286.892 138.758 287.096 139.142C287.312 139.562 287.546 139.976 287.798 140.384C288.062 140.792 288.374 141.158 288.734 141.482C289.094 141.794 289.514 142.052 289.994 142.256C290.486 142.448 291.068 142.544 291.74 142.544C292.496 142.544 293.156 142.424 293.72 142.184C294.284 141.932 294.752 141.608 295.124 141.212C295.508 140.816 295.79 140.378 295.97 139.898C296.162 139.406 296.258 138.914 296.258 138.422C296.258 137.798 296.192 137.234 296.06 136.73C295.928 136.214 295.652 135.776 295.232 135.416C294.812 135.056 294.206 134.774 293.414 134.57C292.634 134.366 291.584 134.264 290.264 134.264V131.096C291.356 131.084 292.262 130.982 292.982 130.79C293.702 130.598 294.272 130.334 294.692 129.998C295.124 129.65 295.424 129.236 295.592 128.756C295.76 128.276 295.844 127.748 295.844 127.172C295.844 125.948 295.502 125.018 294.818 124.382C294.134 123.746 293.222 123.428 292.082 123.428C291.554 123.428 291.068 123.506 290.624 123.662C290.18 123.806 289.778 124.016 289.418 124.292C289.07 124.556 288.776 124.868 288.536 125.228C288.296 125.588 288.116 125.984 287.996 126.416C287.792 126.968 287.522 127.334 287.186 127.514C286.862 127.694 286.4 127.736 285.8 127.64L283.46 127.226ZM304.522 150.41C304.306 150.23 304.198 150.008 304.198 149.744C304.198 149.648 304.228 149.54 304.288 149.42C304.36 149.3 304.444 149.192 304.54 149.096C304.672 148.952 304.834 148.772 305.026 148.556C305.218 148.352 305.41 148.112 305.602 147.836C305.794 147.572 305.968 147.278 306.124 146.954C306.292 146.642 306.418 146.306 306.502 145.946C306.118 145.946 305.77 145.88 305.458 145.748C305.146 145.604 304.876 145.412 304.648 145.172C304.432 144.932 304.258 144.65 304.126 144.326C304.006 144.002 303.946 143.648 303.946 143.264C303.946 142.928 304.006 142.616 304.126 142.328C304.258 142.028 304.438 141.77 304.666 141.554C304.894 141.326 305.17 141.152 305.494 141.032C305.818 140.9 306.172 140.834 306.556 140.834C307.012 140.834 307.408 140.918 307.744 141.086C308.092 141.242 308.374 141.464 308.59 141.752C308.818 142.028 308.986 142.352 309.094 142.724C309.214 143.084 309.274 143.468 309.274 143.876C309.274 144.452 309.184 145.058 309.004 145.694C308.836 146.33 308.584 146.966 308.248 147.602C307.912 148.238 307.492 148.856 306.988 149.456C306.496 150.056 305.932 150.608 305.296 151.112L304.522 150.41ZM321.276 142.814C322.008 142.814 322.65 142.712 323.202 142.508C323.754 142.292 324.216 141.998 324.588 141.626C324.972 141.254 325.26 140.81 325.452 140.294C325.644 139.778 325.74 139.22 325.74 138.62C325.74 137.192 325.344 136.112 324.552 135.38C323.76 134.648 322.668 134.282 321.276 134.282C319.884 134.282 318.792 134.648 318 135.38C317.208 136.112 316.812 137.192 316.812 138.62C316.812 139.22 316.908 139.778 317.1 140.294C317.292 140.81 317.574 141.254 317.946 141.626C318.33 141.998 318.798 142.292 319.35 142.508C319.902 142.712 320.544 142.814 321.276 142.814ZM321.276 123.032C320.616 123.032 320.046 123.134 319.566 123.338C319.086 123.542 318.684 123.818 318.36 124.166C318.048 124.502 317.814 124.892 317.658 125.336C317.514 125.78 317.442 126.248 317.442 126.74C317.442 127.256 317.502 127.76 317.622 128.252C317.754 128.732 317.97 129.164 318.27 129.548C318.57 129.92 318.966 130.22 319.458 130.448C319.95 130.676 320.556 130.79 321.276 130.79C321.996 130.79 322.602 130.676 323.094 130.448C323.586 130.22 323.982 129.92 324.282 129.548C324.582 129.164 324.792 128.732 324.912 128.252C325.044 127.76 325.11 127.256 325.11 126.74C325.11 126.248 325.032 125.78 324.876 125.336C324.72 124.892 324.486 124.502 324.174 124.166C323.862 123.818 323.466 123.542 322.986 123.338C322.506 123.134 321.936 123.032 321.276 123.032ZM325.668 132.428C327.252 132.944 328.422 133.736 329.178 134.804C329.934 135.86 330.312 137.156 330.312 138.692C330.312 139.844 330.09 140.888 329.646 141.824C329.214 142.76 328.602 143.558 327.81 144.218C327.018 144.878 326.064 145.388 324.948 145.748C323.844 146.108 322.62 146.288 321.276 146.288C319.932 146.288 318.702 146.108 317.586 145.748C316.482 145.388 315.534 144.878 314.742 144.218C313.95 143.558 313.332 142.76 312.888 141.824C312.456 140.888 312.24 139.844 312.24 138.692C312.24 137.156 312.618 135.86 313.374 134.804C314.13 133.736 315.3 132.944 316.884 132.428C315.624 131.9 314.676 131.15 314.04 130.178C313.416 129.206 313.104 128.036 313.104 126.668C313.104 125.684 313.302 124.766 313.698 123.914C314.106 123.062 314.67 122.324 315.39 121.7C316.11 121.064 316.968 120.572 317.964 120.224C318.972 119.864 320.076 119.684 321.276 119.684C322.476 119.684 323.574 119.864 324.57 120.224C325.578 120.572 326.442 121.064 327.162 121.7C327.882 122.324 328.44 123.062 328.836 123.914C329.244 124.766 329.448 125.684 329.448 126.668C329.448 128.036 329.13 129.206 328.494 130.178C327.87 131.15 326.928 131.9 325.668 132.428ZM339.027 129.422C339.603 129.302 340.155 129.218 340.683 129.17C341.211 129.11 341.721 129.08 342.213 129.08C343.581 129.08 344.787 129.284 345.831 129.692C346.875 130.1 347.751 130.664 348.459 131.384C349.167 132.104 349.701 132.95 350.061 133.922C350.421 134.882 350.601 135.92 350.601 137.036C350.601 138.416 350.355 139.676 349.863 140.816C349.383 141.956 348.711 142.934 347.847 143.75C346.983 144.554 345.957 145.178 344.769 145.622C343.593 146.066 342.309 146.288 340.917 146.288C340.101 146.288 339.327 146.204 338.595 146.036C337.863 145.868 337.173 145.646 336.525 145.37C335.889 145.082 335.295 144.758 334.743 144.398C334.203 144.026 333.717 143.636 333.285 143.228L334.653 141.338C334.941 140.93 335.319 140.726 335.787 140.726C336.087 140.726 336.393 140.822 336.705 141.014C337.017 141.206 337.371 141.416 337.767 141.644C338.175 141.872 338.649 142.082 339.189 142.274C339.741 142.466 340.401 142.562 341.169 142.562C341.985 142.562 342.705 142.43 343.329 142.166C343.953 141.902 344.469 141.536 344.877 141.068C345.297 140.588 345.609 140.024 345.813 139.376C346.029 138.716 346.137 138.002 346.137 137.234C346.137 135.818 345.723 134.714 344.895 133.922C344.079 133.118 342.867 132.716 341.259 132.716C340.023 132.716 338.757 132.944 337.461 133.4L334.689 132.608L336.849 119.972H349.701V121.862C349.701 122.498 349.503 123.014 349.107 123.41C348.711 123.806 348.039 124.004 347.091 124.004H339.945L339.027 129.422ZM372.582 132.986C372.582 135.254 372.336 137.228 371.844 138.908C371.364 140.576 370.692 141.956 369.828 143.048C368.976 144.14 367.962 144.956 366.786 145.496C365.622 146.024 364.362 146.288 363.006 146.288C361.65 146.288 360.39 146.024 359.226 145.496C358.074 144.956 357.072 144.14 356.22 143.048C355.368 141.956 354.702 140.576 354.222 138.908C353.742 137.228 353.502 135.254 353.502 132.986C353.502 130.706 353.742 128.732 354.222 127.064C354.702 125.396 355.368 124.016 356.22 122.924C357.072 121.832 358.074 121.022 359.226 120.494C360.39 119.954 361.65 119.684 363.006 119.684C364.362 119.684 365.622 119.954 366.786 120.494C367.962 121.022 368.976 121.832 369.828 122.924C370.692 124.016 371.364 125.396 371.844 127.064C372.336 128.732 372.582 130.706 372.582 132.986ZM367.992 132.986C367.992 131.102 367.854 129.542 367.578 128.306C367.302 127.07 366.93 126.086 366.462 125.354C366.006 124.622 365.478 124.112 364.878 123.824C364.278 123.524 363.654 123.374 363.006 123.374C362.37 123.374 361.752 123.524 361.152 123.824C360.564 124.112 360.042 124.622 359.586 125.354C359.13 126.086 358.764 127.07 358.488 128.306C358.224 129.542 358.092 131.102 358.092 132.986C358.092 134.87 358.224 136.43 358.488 137.666C358.764 138.902 359.13 139.886 359.586 140.618C360.042 141.35 360.564 141.866 361.152 142.166C361.752 142.454 362.37 142.598 363.006 142.598C363.654 142.598 364.278 142.454 364.878 142.166C365.478 141.866 366.006 141.35 366.462 140.618C366.93 139.886 367.302 138.902 367.578 137.666C367.854 136.43 367.992 134.87 367.992 132.986Z" fill="white"/>
<path d="M275.679 133.263C276.315 133.179 276.795 132.966 277.119 132.624C277.449 132.276 277.614 131.823 277.614 131.265C277.614 131.037 277.572 130.839 277.488 130.671C277.41 130.497 277.296 130.344 277.146 130.212C277.002 130.08 276.831 129.966 276.633 129.87C276.435 129.774 276.219 129.684 275.985 129.6L275.679 133.263ZM275.103 123.75C274.767 123.792 274.482 123.864 274.248 123.966C274.014 124.062 273.822 124.182 273.672 124.326C273.522 124.47 273.411 124.632 273.339 124.812C273.273 124.992 273.24 125.181 273.24 125.379C273.24 125.607 273.279 125.808 273.357 125.982C273.441 126.15 273.552 126.303 273.69 126.441C273.834 126.573 274.002 126.693 274.194 126.801C274.386 126.903 274.596 126.999 274.824 127.089L275.103 123.75ZM276.156 127.521C276.588 127.653 277.017 127.8 277.443 127.962C277.869 128.118 278.25 128.322 278.586 128.574C278.928 128.826 279.204 129.141 279.414 129.519C279.624 129.891 279.729 130.359 279.729 130.923C279.729 131.481 279.636 132.006 279.45 132.498C279.264 132.984 278.991 133.416 278.631 133.794C278.271 134.166 277.83 134.472 277.308 134.712C276.786 134.946 276.189 135.084 275.517 135.126L275.409 136.449C275.403 136.587 275.343 136.713 275.229 136.827C275.121 136.947 274.983 137.007 274.815 137.007H273.996L274.158 135.081C273.456 134.985 272.796 134.793 272.178 134.505C271.56 134.217 271.035 133.86 270.603 133.434L271.287 132.417C271.347 132.327 271.425 132.255 271.521 132.201C271.623 132.141 271.731 132.111 271.845 132.111C271.977 132.111 272.118 132.159 272.268 132.255C272.418 132.345 272.589 132.453 272.781 132.579C272.973 132.699 273.192 132.822 273.438 132.948C273.684 133.074 273.975 133.167 274.311 133.227L274.644 129.204C274.218 129.084 273.795 128.943 273.375 128.781C272.961 128.619 272.586 128.406 272.25 128.142C271.92 127.872 271.653 127.533 271.449 127.125C271.245 126.717 271.143 126.207 271.143 125.595C271.143 125.139 271.233 124.695 271.413 124.263C271.593 123.825 271.857 123.435 272.205 123.093C272.559 122.751 272.991 122.469 273.501 122.247C274.011 122.025 274.596 121.899 275.256 121.869L275.355 120.735C275.367 120.591 275.427 120.462 275.535 120.348C275.643 120.234 275.784 120.177 275.958 120.177H276.777L276.633 121.941C277.269 122.043 277.818 122.226 278.28 122.49C278.742 122.748 279.141 123.039 279.477 123.363L278.937 124.182C278.859 124.302 278.778 124.392 278.694 124.452C278.61 124.512 278.508 124.542 278.388 124.542C278.298 124.542 278.19 124.515 278.064 124.461C277.938 124.401 277.797 124.332 277.641 124.254C277.485 124.17 277.308 124.086 277.11 124.002C276.918 123.918 276.705 123.849 276.471 123.795L276.156 127.521Z" fill="white"/>
<path d="M296.146 227.67V231H281.746V227.67H287.02V212.496C287.02 211.896 287.038 211.278 287.074 210.642L283.33 213.774C283.114 213.942 282.898 214.05 282.682 214.098C282.478 214.134 282.28 214.134 282.088 214.098C281.908 214.062 281.746 214.002 281.602 213.918C281.458 213.822 281.35 213.72 281.278 213.612L279.874 211.686L287.812 204.936H291.466V227.67H296.146ZM300.522 235.41C300.306 235.23 300.198 235.008 300.198 234.744C300.198 234.648 300.228 234.54 300.288 234.42C300.36 234.3 300.444 234.192 300.54 234.096C300.672 233.952 300.834 233.772 301.026 233.556C301.218 233.352 301.41 233.112 301.602 232.836C301.794 232.572 301.968 232.278 302.124 231.954C302.292 231.642 302.418 231.306 302.502 230.946C302.118 230.946 301.77 230.88 301.458 230.748C301.146 230.604 300.876 230.412 300.648 230.172C300.432 229.932 300.258 229.65 300.126 229.326C300.006 229.002 299.946 228.648 299.946 228.264C299.946 227.928 300.006 227.616 300.126 227.328C300.258 227.028 300.438 226.77 300.666 226.554C300.894 226.326 301.17 226.152 301.494 226.032C301.818 225.9 302.172 225.834 302.556 225.834C303.012 225.834 303.408 225.918 303.744 226.086C304.092 226.242 304.374 226.464 304.59 226.752C304.818 227.028 304.986 227.352 305.094 227.724C305.214 228.084 305.274 228.468 305.274 228.876C305.274 229.452 305.184 230.058 305.004 230.694C304.836 231.33 304.584 231.966 304.248 232.602C303.912 233.238 303.492 233.856 302.988 234.456C302.496 235.056 301.932 235.608 301.296 236.112L300.522 235.41ZM324.494 226.86C324.974 226.86 325.352 226.998 325.628 227.274C325.916 227.538 326.06 227.892 326.06 228.336V231H308.204V229.524C308.204 229.224 308.264 228.912 308.384 228.588C308.516 228.252 308.72 227.952 308.996 227.688L316.898 219.768C317.558 219.096 318.146 218.454 318.662 217.842C319.19 217.23 319.628 216.624 319.976 216.024C320.324 215.424 320.588 214.818 320.768 214.206C320.96 213.582 321.056 212.928 321.056 212.244C321.056 211.62 320.966 211.074 320.786 210.606C320.606 210.126 320.348 209.724 320.012 209.4C319.688 209.076 319.292 208.836 318.824 208.68C318.368 208.512 317.852 208.428 317.276 208.428C316.748 208.428 316.256 208.506 315.8 208.662C315.356 208.806 314.96 209.016 314.612 209.292C314.264 209.556 313.97 209.868 313.73 210.228C313.49 210.588 313.31 210.984 313.19 211.416C312.986 211.968 312.722 212.334 312.398 212.514C312.074 212.694 311.606 212.736 310.994 212.64L308.654 212.226C308.834 210.978 309.182 209.886 309.698 208.95C310.214 208.002 310.856 207.216 311.624 206.592C312.404 205.956 313.292 205.482 314.288 205.17C315.296 204.846 316.376 204.684 317.528 204.684C318.728 204.684 319.826 204.864 320.822 205.224C321.818 205.572 322.67 206.07 323.378 206.718C324.086 207.366 324.638 208.146 325.034 209.058C325.43 209.97 325.628 210.984 325.628 212.1C325.628 213.06 325.484 213.948 325.196 214.764C324.92 215.58 324.542 216.36 324.062 217.104C323.594 217.848 323.042 218.568 322.406 219.264C321.77 219.96 321.104 220.668 320.408 221.388L314.54 227.382C315.104 227.214 315.662 227.088 316.214 227.004C316.778 226.908 317.312 226.86 317.816 226.86H324.494ZM329.663 212.226C329.843 210.978 330.191 209.886 330.707 208.95C331.223 208.002 331.865 207.216 332.633 206.592C333.413 205.956 334.301 205.482 335.297 205.17C336.305 204.846 337.385 204.684 338.537 204.684C339.737 204.684 340.817 204.858 341.777 205.206C342.749 205.542 343.577 206.016 344.261 206.628C344.945 207.228 345.467 207.936 345.827 208.752C346.199 209.568 346.385 210.45 346.385 211.398C346.385 212.226 346.289 212.958 346.097 213.594C345.917 214.218 345.653 214.764 345.305 215.232C344.957 215.7 344.525 216.096 344.009 216.42C343.493 216.744 342.911 217.014 342.263 217.23C343.823 217.722 344.987 218.472 345.755 219.48C346.523 220.488 346.907 221.754 346.907 223.278C346.907 224.574 346.667 225.72 346.187 226.716C345.707 227.712 345.059 228.552 344.243 229.236C343.427 229.908 342.479 230.418 341.399 230.766C340.331 231.114 339.197 231.288 337.997 231.288C336.689 231.288 335.549 231.138 334.577 230.838C333.605 230.538 332.759 230.094 332.039 229.506C331.319 228.918 330.707 228.198 330.203 227.346C329.699 226.494 329.267 225.51 328.907 224.394L330.869 223.584C331.385 223.368 331.865 223.314 332.309 223.422C332.765 223.518 333.095 223.758 333.299 224.142C333.515 224.562 333.749 224.976 334.001 225.384C334.265 225.792 334.577 226.158 334.937 226.482C335.297 226.794 335.717 227.052 336.197 227.256C336.689 227.448 337.271 227.544 337.943 227.544C338.699 227.544 339.359 227.424 339.923 227.184C340.487 226.932 340.955 226.608 341.327 226.212C341.711 225.816 341.993 225.378 342.173 224.898C342.365 224.406 342.461 223.914 342.461 223.422C342.461 222.798 342.395 222.234 342.263 221.73C342.131 221.214 341.855 220.776 341.435 220.416C341.015 220.056 340.409 219.774 339.617 219.57C338.837 219.366 337.787 219.264 336.467 219.264V216.096C337.559 216.084 338.465 215.982 339.185 215.79C339.905 215.598 340.475 215.334 340.895 214.998C341.327 214.65 341.627 214.236 341.795 213.756C341.963 213.276 342.047 212.748 342.047 212.172C342.047 210.948 341.705 210.018 341.021 209.382C340.337 208.746 339.425 208.428 338.285 208.428C337.757 208.428 337.271 208.506 336.827 208.662C336.383 208.806 335.981 209.016 335.621 209.292C335.273 209.556 334.979 209.868 334.739 210.228C334.499 210.588 334.319 210.984 334.199 211.416C333.995 211.968 333.725 212.334 333.389 212.514C333.065 212.694 332.603 212.736 332.003 212.64L329.663 212.226ZM355.91 214.422C356.486 214.302 357.038 214.218 357.566 214.17C358.094 214.11 358.604 214.08 359.096 214.08C360.464 214.08 361.67 214.284 362.714 214.692C363.758 215.1 364.634 215.664 365.342 216.384C366.05 217.104 366.584 217.95 366.944 218.922C367.304 219.882 367.484 220.92 367.484 222.036C367.484 223.416 367.238 224.676 366.746 225.816C366.266 226.956 365.594 227.934 364.73 228.75C363.866 229.554 362.84 230.178 361.652 230.622C360.476 231.066 359.192 231.288 357.8 231.288C356.984 231.288 356.21 231.204 355.478 231.036C354.746 230.868 354.056 230.646 353.408 230.37C352.772 230.082 352.178 229.758 351.626 229.398C351.086 229.026 350.6 228.636 350.168 228.228L351.536 226.338C351.824 225.93 352.202 225.726 352.67 225.726C352.97 225.726 353.276 225.822 353.588 226.014C353.9 226.206 354.254 226.416 354.65 226.644C355.058 226.872 355.532 227.082 356.072 227.274C356.624 227.466 357.284 227.562 358.052 227.562C358.868 227.562 359.588 227.43 360.212 227.166C360.836 226.902 361.352 226.536 361.76 226.068C362.18 225.588 362.492 225.024 362.696 224.376C362.912 223.716 363.02 223.002 363.02 222.234C363.02 220.818 362.606 219.714 361.778 218.922C360.962 218.118 359.75 217.716 358.142 217.716C356.906 217.716 355.64 217.944 354.344 218.4L351.572 217.608L353.732 204.972H366.584V206.862C366.584 207.498 366.386 208.014 365.99 208.41C365.594 208.806 364.922 209.004 363.974 209.004H356.828L355.91 214.422Z" fill="#FF7D3B"/>
<path d="M271.679 218.263C272.315 218.179 272.795 217.966 273.119 217.624C273.449 217.276 273.614 216.823 273.614 216.265C273.614 216.037 273.572 215.839 273.488 215.671C273.41 215.497 273.296 215.344 273.146 215.212C273.002 215.08 272.831 214.966 272.633 214.87C272.435 214.774 272.219 214.684 271.985 214.6L271.679 218.263ZM271.103 208.75C270.767 208.792 270.482 208.864 270.248 208.966C270.014 209.062 269.822 209.182 269.672 209.326C269.522 209.47 269.411 209.632 269.339 209.812C269.273 209.992 269.24 210.181 269.24 210.379C269.24 210.607 269.279 210.808 269.357 210.982C269.441 211.15 269.552 211.303 269.69 211.441C269.834 211.573 270.002 211.693 270.194 211.801C270.386 211.903 270.596 211.999 270.824 212.089L271.103 208.75ZM272.156 212.521C272.588 212.653 273.017 212.8 273.443 212.962C273.869 213.118 274.25 213.322 274.586 213.574C274.928 213.826 275.204 214.141 275.414 214.519C275.624 214.891 275.729 215.359 275.729 215.923C275.729 216.481 275.636 217.006 275.45 217.498C275.264 217.984 274.991 218.416 274.631 218.794C274.271 219.166 273.83 219.472 273.308 219.712C272.786 219.946 272.189 220.084 271.517 220.126L271.409 221.449C271.403 221.587 271.343 221.713 271.229 221.827C271.121 221.947 270.983 222.007 270.815 222.007H269.996L270.158 220.081C269.456 219.985 268.796 219.793 268.178 219.505C267.56 219.217 267.035 218.86 266.603 218.434L267.287 217.417C267.347 217.327 267.425 217.255 267.521 217.201C267.623 217.141 267.731 217.111 267.845 217.111C267.977 217.111 268.118 217.159 268.268 217.255C268.418 217.345 268.589 217.453 268.781 217.579C268.973 217.699 269.192 217.822 269.438 217.948C269.684 218.074 269.975 218.167 270.311 218.227L270.644 214.204C270.218 214.084 269.795 213.943 269.375 213.781C268.961 213.619 268.586 213.406 268.25 213.142C267.92 212.872 267.653 212.533 267.449 212.125C267.245 211.717 267.143 211.207 267.143 210.595C267.143 210.139 267.233 209.695 267.413 209.263C267.593 208.825 267.857 208.435 268.205 208.093C268.559 207.751 268.991 207.469 269.501 207.247C270.011 207.025 270.596 206.899 271.256 206.869L271.355 205.735C271.367 205.591 271.427 205.462 271.535 205.348C271.643 205.234 271.784 205.177 271.958 205.177H272.777L272.633 206.941C273.269 207.043 273.818 207.226 274.28 207.49C274.742 207.748 275.141 208.039 275.477 208.363L274.937 209.182C274.859 209.302 274.778 209.392 274.694 209.452C274.61 209.512 274.508 209.542 274.388 209.542C274.298 209.542 274.19 209.515 274.064 209.461C273.938 209.401 273.797 209.332 273.641 209.254C273.485 209.17 273.308 209.086 273.11 209.002C272.918 208.918 272.705 208.849 272.471 208.795L272.156 212.521Z" fill="#FF7D3B"/>
<path d="M51.908 292.283C51.83 292.413 51.7433 292.513 51.648 292.582C51.5613 292.643 51.453 292.673 51.323 292.673C51.1757 292.673 51.0023 292.599 50.803 292.452C50.6037 292.305 50.3523 292.144 50.049 291.971C49.7543 291.789 49.3947 291.624 48.97 291.477C48.554 291.33 48.047 291.256 47.449 291.256C46.8857 291.256 46.3873 291.334 45.954 291.49C45.5293 291.637 45.1697 291.841 44.875 292.101C44.589 292.361 44.3723 292.669 44.225 293.024C44.0777 293.371 44.004 293.748 44.004 294.155C44.004 294.675 44.1297 295.108 44.381 295.455C44.641 295.793 44.979 296.083 45.395 296.326C45.8197 296.569 46.2963 296.781 46.825 296.963C47.3623 297.136 47.9083 297.318 48.463 297.509C49.0263 297.7 49.5723 297.916 50.101 298.159C50.6383 298.393 51.115 298.692 51.531 299.056C51.9557 299.42 52.2937 299.866 52.545 300.395C52.805 300.924 52.935 301.574 52.935 302.345C52.935 303.16 52.7963 303.927 52.519 304.646C52.2417 305.357 51.8343 305.976 51.297 306.505C50.7683 307.034 50.114 307.45 49.334 307.753C48.5627 308.056 47.683 308.208 46.695 308.208C45.4817 308.208 44.381 307.991 43.393 307.558C42.405 307.116 41.56 306.522 40.858 305.777L41.586 304.581C41.6553 304.486 41.7377 304.408 41.833 304.347C41.937 304.278 42.0497 304.243 42.171 304.243C42.2837 304.243 42.4093 304.291 42.548 304.386C42.6953 304.473 42.86 304.585 43.042 304.724C43.224 304.863 43.432 305.014 43.666 305.179C43.9 305.344 44.1643 305.495 44.459 305.634C44.7623 305.773 45.1047 305.89 45.486 305.985C45.8673 306.072 46.2963 306.115 46.773 306.115C47.371 306.115 47.904 306.033 48.372 305.868C48.84 305.703 49.2343 305.474 49.555 305.179C49.8843 304.876 50.1357 304.516 50.309 304.1C50.4823 303.684 50.569 303.22 50.569 302.709C50.569 302.146 50.439 301.686 50.179 301.331C49.9277 300.967 49.594 300.664 49.178 300.421C48.762 300.178 48.2853 299.975 47.748 299.81C47.2107 299.637 46.6647 299.463 46.11 299.29C45.5553 299.108 45.0093 298.9 44.472 298.666C43.9347 298.432 43.458 298.129 43.042 297.756C42.626 297.383 42.288 296.92 42.028 296.365C41.7767 295.802 41.651 295.108 41.651 294.285C41.651 293.626 41.7767 292.989 42.028 292.374C42.288 291.759 42.6607 291.213 43.146 290.736C43.64 290.259 44.2423 289.878 44.953 289.592C45.6723 289.306 46.4957 289.163 47.423 289.163C48.463 289.163 49.4077 289.328 50.257 289.657C51.115 289.986 51.869 290.463 52.519 291.087L51.908 292.283ZM62.9095 302.072C61.8435 302.107 60.9335 302.193 60.1795 302.332C59.4341 302.462 58.8231 302.635 58.3465 302.852C57.8785 303.069 57.5361 303.324 57.3195 303.619C57.1115 303.914 57.0075 304.243 57.0075 304.607C57.0075 304.954 57.0638 305.253 57.1765 305.504C57.2891 305.755 57.4408 305.963 57.6315 306.128C57.8308 306.284 58.0605 306.401 58.3205 306.479C58.5891 306.548 58.8751 306.583 59.1785 306.583C59.5858 306.583 59.9585 306.544 60.2965 306.466C60.6345 306.379 60.9508 306.258 61.2455 306.102C61.5488 305.946 61.8348 305.76 62.1035 305.543C62.3808 305.326 62.6495 305.079 62.9095 304.802V302.072ZM55.4345 296.69C56.1625 295.988 56.9468 295.464 57.7875 295.117C58.6281 294.77 59.5598 294.597 60.5825 294.597C61.3191 294.597 61.9735 294.718 62.5455 294.961C63.1175 295.204 63.5985 295.542 63.9885 295.975C64.3785 296.408 64.6731 296.933 64.8725 297.548C65.0718 298.163 65.1715 298.839 65.1715 299.576V308H64.1445C63.9191 308 63.7458 307.965 63.6245 307.896C63.5031 307.818 63.4078 307.671 63.3385 307.454L63.0785 306.206C62.7318 306.527 62.3938 306.813 62.0645 307.064C61.7351 307.307 61.3885 307.515 61.0245 307.688C60.6605 307.853 60.2705 307.978 59.8545 308.065C59.4471 308.16 58.9921 308.208 58.4895 308.208C57.9781 308.208 57.4971 308.139 57.0465 308C56.5958 307.853 56.2015 307.636 55.8635 307.35C55.5341 307.064 55.2698 306.704 55.0705 306.271C54.8798 305.829 54.7845 305.309 54.7845 304.711C54.7845 304.191 54.9275 303.693 55.2135 303.216C55.4995 302.731 55.9631 302.302 56.6045 301.929C57.2458 301.556 58.0821 301.253 59.1135 301.019C60.1448 300.776 61.4101 300.638 62.9095 300.603V299.576C62.9095 298.553 62.6885 297.782 62.2465 297.262C61.8045 296.733 61.1588 296.469 60.3095 296.469C59.7375 296.469 59.2565 296.543 58.8665 296.69C58.4851 296.829 58.1515 296.989 57.8655 297.171C57.5881 297.344 57.3455 297.505 57.1375 297.652C56.9381 297.791 56.7388 297.86 56.5395 297.86C56.3835 297.86 56.2491 297.821 56.1365 297.743C56.0238 297.656 55.9285 297.552 55.8505 297.431L55.4345 296.69ZM79.701 294.831L74.332 308H72.252L66.883 294.831H68.768C68.9587 294.831 69.1147 294.879 69.236 294.974C69.3573 295.069 69.4397 295.182 69.483 295.312L72.824 303.788C72.928 304.109 73.019 304.421 73.097 304.724C73.175 305.027 73.2487 305.331 73.318 305.634C73.3873 305.331 73.461 305.027 73.539 304.724C73.617 304.421 73.7123 304.109 73.825 303.788L77.205 295.312C77.257 295.173 77.3437 295.061 77.465 294.974C77.5863 294.879 77.7293 294.831 77.894 294.831H79.701ZM90.2818 299.979C90.2818 299.442 90.2038 298.952 90.0478 298.51C89.9004 298.059 89.6794 297.674 89.3848 297.353C89.0988 297.024 88.7478 296.772 88.3318 296.599C87.9158 296.417 87.4434 296.326 86.9148 296.326C85.8054 296.326 84.9258 296.651 84.2758 297.301C83.6344 297.942 83.2358 298.835 83.0798 299.979H90.2818ZM92.1538 306.154C91.8678 306.501 91.5254 306.804 91.1268 307.064C90.7281 307.315 90.2991 307.523 89.8398 307.688C89.3891 307.853 88.9211 307.974 88.4358 308.052C87.9504 308.139 87.4694 308.182 86.9928 308.182C86.0828 308.182 85.2421 308.03 84.4708 307.727C83.7081 307.415 83.0451 306.964 82.4818 306.375C81.9271 305.777 81.4938 305.04 81.1818 304.165C80.8698 303.29 80.7138 302.284 80.7138 301.149C80.7138 300.23 80.8524 299.372 81.1298 298.575C81.4158 297.778 81.8231 297.089 82.3518 296.508C82.8804 295.919 83.5261 295.459 84.2888 295.13C85.0514 294.792 85.9094 294.623 86.8628 294.623C87.6514 294.623 88.3794 294.757 89.0468 295.026C89.7228 295.286 90.3034 295.667 90.7888 296.17C91.2828 296.664 91.6684 297.279 91.9458 298.016C92.2231 298.744 92.3618 299.576 92.3618 300.512C92.3618 300.876 92.3228 301.119 92.2448 301.24C92.1668 301.361 92.0194 301.422 91.8028 301.422H83.0018C83.0278 302.254 83.1404 302.978 83.3398 303.593C83.5478 304.208 83.8338 304.724 84.1978 305.14C84.5618 305.547 84.9951 305.855 85.4978 306.063C86.0004 306.262 86.5638 306.362 87.1878 306.362C87.7684 306.362 88.2668 306.297 88.6828 306.167C89.1074 306.028 89.4714 305.881 89.7748 305.725C90.0781 305.569 90.3294 305.426 90.5288 305.296C90.7368 305.157 90.9144 305.088 91.0618 305.088C91.2524 305.088 91.3998 305.162 91.5038 305.309L92.1538 306.154Z" fill="white"/>
<path d="M48.918 139.998C49.6373 139.998 50.257 139.916 50.777 139.751C51.297 139.586 51.7217 139.357 52.051 139.062C52.389 138.759 52.636 138.403 52.792 137.996C52.948 137.58 53.026 137.125 53.026 136.631C53.026 135.669 52.6837 134.911 51.999 134.356C51.3143 133.793 50.2873 133.511 48.918 133.511H44.888V139.998H48.918ZM44.888 125.36V131.717H48.216C48.9267 131.717 49.542 131.639 50.062 131.483C50.5907 131.327 51.024 131.11 51.362 130.833C51.7087 130.556 51.9643 130.222 52.129 129.832C52.2937 129.433 52.376 129 52.376 128.532C52.376 127.431 52.0467 126.63 51.388 126.127C50.7293 125.616 49.7067 125.36 48.32 125.36H44.888ZM48.32 123.371C49.464 123.371 50.4477 123.484 51.271 123.709C52.103 123.934 52.7833 124.255 53.312 124.671C53.8493 125.087 54.2437 125.598 54.495 126.205C54.7463 126.803 54.872 127.479 54.872 128.233C54.872 128.692 54.7983 129.134 54.651 129.559C54.5123 129.975 54.3 130.365 54.014 130.729C53.728 131.093 53.364 131.422 52.922 131.717C52.4887 132.003 51.9773 132.237 51.388 132.419C52.7573 132.679 53.7843 133.169 54.469 133.888C55.1623 134.599 55.509 135.535 55.509 136.696C55.509 137.485 55.3617 138.204 55.067 138.854C54.781 139.504 54.3563 140.063 53.793 140.531C53.2383 140.999 52.5537 141.363 51.739 141.623C50.9243 141.874 49.997 142 48.957 142H42.379V123.371H48.32ZM69.1913 128.831V142H67.8133C67.484 142 67.276 141.84 67.1893 141.519L67.0073 140.102C66.4353 140.735 65.794 141.246 65.0833 141.636C64.3726 142.017 63.558 142.208 62.6393 142.208C61.92 142.208 61.283 142.091 60.7283 141.857C60.1823 141.614 59.723 141.276 59.3503 140.843C58.9776 140.41 58.696 139.885 58.5053 139.27C58.3233 138.655 58.2323 137.974 58.2323 137.229V128.831H60.5463V137.229C60.5463 138.226 60.7716 138.997 61.2223 139.543C61.6816 140.089 62.3793 140.362 63.3153 140.362C64 140.362 64.637 140.202 65.2263 139.881C65.8243 139.552 66.3746 139.101 66.8773 138.529V128.831H69.1913ZM81.4403 131.964C81.007 131.383 80.539 130.98 80.0363 130.755C79.5337 130.521 78.9703 130.404 78.3463 130.404C77.1243 130.404 76.184 130.842 75.5253 131.717C74.8667 132.592 74.5373 133.84 74.5373 135.461C74.5373 136.319 74.611 137.056 74.7583 137.671C74.9057 138.278 75.1223 138.78 75.4083 139.179C75.6943 139.569 76.0453 139.855 76.4613 140.037C76.8773 140.219 77.3497 140.31 77.8783 140.31C78.641 140.31 79.304 140.137 79.8673 139.79C80.4393 139.443 80.9637 138.954 81.4403 138.321V131.964ZM83.7543 122.851V142H82.3763C82.047 142 81.839 141.84 81.7523 141.519L81.5443 139.92C80.981 140.596 80.3397 141.142 79.6203 141.558C78.901 141.974 78.069 142.182 77.1243 142.182C76.3703 142.182 75.6857 142.039 75.0703 141.753C74.455 141.458 73.9307 141.029 73.4973 140.466C73.064 139.903 72.7303 139.201 72.4963 138.36C72.2623 137.519 72.1453 136.553 72.1453 135.461C72.1453 134.49 72.2753 133.589 72.5353 132.757C72.7953 131.916 73.168 131.188 73.6533 130.573C74.1387 129.958 74.7323 129.477 75.4343 129.13C76.145 128.775 76.9423 128.597 77.8263 128.597C78.6323 128.597 79.3213 128.736 79.8933 129.013C80.474 129.282 80.9897 129.659 81.4403 130.144V122.851H83.7543ZM91.9982 135.565C92.4662 135.565 92.8778 135.5 93.2332 135.37C93.5885 135.24 93.8875 135.058 94.1302 134.824C94.3728 134.59 94.5548 134.313 94.6762 133.992C94.7975 133.663 94.8582 133.303 94.8582 132.913C94.8582 132.107 94.6112 131.466 94.1172 130.989C93.6318 130.512 92.9255 130.274 91.9982 130.274C91.0622 130.274 90.3472 130.512 89.8532 130.989C89.3678 131.466 89.1252 132.107 89.1252 132.913C89.1252 133.303 89.1858 133.663 89.3072 133.992C89.4372 134.313 89.6235 134.59 89.8662 134.824C90.1088 135.058 90.4078 135.24 90.7632 135.37C91.1185 135.5 91.5302 135.565 91.9982 135.565ZM96.1712 142.715C96.1712 142.394 96.0802 142.134 95.8982 141.935C95.7162 141.736 95.4692 141.58 95.1572 141.467C94.8538 141.354 94.4985 141.276 94.0912 141.233C93.6838 141.181 93.2505 141.142 92.7912 141.116C92.3405 141.09 91.8812 141.064 91.4132 141.038C90.9452 141.012 90.4945 140.969 90.0612 140.908C89.5758 141.133 89.1772 141.419 88.8652 141.766C88.5618 142.104 88.4102 142.503 88.4102 142.962C88.4102 143.257 88.4838 143.53 88.6312 143.781C88.7872 144.041 89.0212 144.262 89.3332 144.444C89.6452 144.635 90.0352 144.782 90.5032 144.886C90.9798 144.999 91.5388 145.055 92.1802 145.055C92.8042 145.055 93.3632 144.999 93.8572 144.886C94.3512 144.773 94.7672 144.613 95.1052 144.405C95.4518 144.197 95.7162 143.95 95.8982 143.664C96.0802 143.378 96.1712 143.062 96.1712 142.715ZM98.5242 129.351V130.209C98.5242 130.495 98.3422 130.677 97.9782 130.755L96.4832 130.95C96.7778 131.522 96.9252 132.155 96.9252 132.848C96.9252 133.489 96.7995 134.074 96.5482 134.603C96.3055 135.123 95.9675 135.569 95.5342 135.942C95.1008 136.315 94.5808 136.601 93.9742 136.8C93.3675 136.999 92.7088 137.099 91.9982 137.099C91.3828 137.099 90.8022 137.025 90.2562 136.878C89.9788 137.051 89.7665 137.238 89.6192 137.437C89.4718 137.628 89.3982 137.823 89.3982 138.022C89.3982 138.334 89.5238 138.572 89.7752 138.737C90.0352 138.893 90.3732 139.006 90.7892 139.075C91.2052 139.144 91.6775 139.188 92.2062 139.205C92.7435 139.222 93.2895 139.253 93.8442 139.296C94.4075 139.331 94.9535 139.396 95.4822 139.491C96.0195 139.586 96.4962 139.742 96.9122 139.959C97.3282 140.176 97.6618 140.475 97.9132 140.856C98.1732 141.237 98.3032 141.731 98.3032 142.338C98.3032 142.901 98.1602 143.447 97.8742 143.976C97.5968 144.505 97.1938 144.973 96.6652 145.38C96.1365 145.796 95.4865 146.125 94.7152 146.368C93.9525 146.619 93.0902 146.745 92.1282 146.745C91.1662 146.745 90.3255 146.65 89.6062 146.459C88.8868 146.268 88.2888 146.013 87.8122 145.692C87.3355 145.371 86.9758 144.999 86.7332 144.574C86.4992 144.158 86.3822 143.72 86.3822 143.261C86.3822 142.611 86.5858 142.061 86.9932 141.61C87.4005 141.159 87.9595 140.8 88.6702 140.531C88.2802 140.358 87.9682 140.128 87.7342 139.842C87.5088 139.547 87.3962 139.153 87.3962 138.659C87.3962 138.468 87.4308 138.273 87.5002 138.074C87.5695 137.866 87.6735 137.662 87.8122 137.463C87.9595 137.255 88.1372 137.06 88.3452 136.878C88.5532 136.696 88.7958 136.536 89.0732 136.397C88.4232 136.033 87.9162 135.552 87.5522 134.954C87.1882 134.347 87.0062 133.645 87.0062 132.848C87.0062 132.207 87.1275 131.626 87.3702 131.106C87.6215 130.577 87.9682 130.131 88.4102 129.767C88.8522 129.394 89.3765 129.108 89.9832 128.909C90.5985 128.71 91.2702 128.61 91.9982 128.61C92.5702 128.61 93.1032 128.675 93.5972 128.805C94.0912 128.926 94.5418 129.108 94.9492 129.351H98.5242ZM109.528 133.979C109.528 133.442 109.45 132.952 109.294 132.51C109.147 132.059 108.926 131.674 108.631 131.353C108.345 131.024 107.994 130.772 107.578 130.599C107.162 130.417 106.69 130.326 106.161 130.326C105.052 130.326 104.172 130.651 103.522 131.301C102.881 131.942 102.482 132.835 102.326 133.979H109.528ZM111.4 140.154C111.114 140.501 110.772 140.804 110.373 141.064C109.974 141.315 109.545 141.523 109.086 141.688C108.635 141.853 108.167 141.974 107.682 142.052C107.197 142.139 106.716 142.182 106.239 142.182C105.329 142.182 104.488 142.03 103.717 141.727C102.954 141.415 102.291 140.964 101.728 140.375C101.173 139.777 100.74 139.04 100.428 138.165C100.116 137.29 99.9599 136.284 99.9599 135.149C99.9599 134.23 100.099 133.372 100.376 132.575C100.662 131.778 101.069 131.089 101.598 130.508C102.127 129.919 102.772 129.459 103.535 129.13C104.298 128.792 105.156 128.623 106.109 128.623C106.898 128.623 107.626 128.757 108.293 129.026C108.969 129.286 109.55 129.667 110.035 130.17C110.529 130.664 110.915 131.279 111.192 132.016C111.469 132.744 111.608 133.576 111.608 134.512C111.608 134.876 111.569 135.119 111.491 135.24C111.413 135.361 111.266 135.422 111.049 135.422H102.248C102.274 136.254 102.387 136.978 102.586 137.593C102.794 138.208 103.08 138.724 103.444 139.14C103.808 139.547 104.241 139.855 104.744 140.063C105.247 140.262 105.81 140.362 106.434 140.362C107.015 140.362 107.513 140.297 107.929 140.167C108.354 140.028 108.718 139.881 109.021 139.725C109.324 139.569 109.576 139.426 109.775 139.296C109.983 139.157 110.161 139.088 110.308 139.088C110.499 139.088 110.646 139.162 110.75 139.309L111.4 140.154ZM118.392 142.208C117.352 142.208 116.55 141.918 115.987 141.337C115.432 140.756 115.155 139.92 115.155 138.828V130.768H113.569C113.43 130.768 113.313 130.729 113.218 130.651C113.122 130.564 113.075 130.434 113.075 130.261V129.338L115.233 129.065L115.766 124.996C115.792 124.866 115.848 124.762 115.935 124.684C116.03 124.597 116.151 124.554 116.299 124.554H117.469V129.091H121.278V130.768H117.469V138.672C117.469 139.227 117.603 139.638 117.872 139.907C118.14 140.176 118.487 140.31 118.912 140.31C119.154 140.31 119.362 140.28 119.536 140.219C119.718 140.15 119.874 140.076 120.004 139.998C120.134 139.92 120.242 139.851 120.329 139.79C120.424 139.721 120.506 139.686 120.576 139.686C120.697 139.686 120.805 139.76 120.901 139.907L121.577 141.012C121.178 141.385 120.697 141.679 120.134 141.896C119.57 142.104 118.99 142.208 118.392 142.208Z" fill="white"/>
<path d="M55.457 223.152C55.5957 223.152 55.717 223.208 55.821 223.321L56.822 224.4C56.0593 225.284 55.132 225.973 54.04 226.467C52.9567 226.961 51.6437 227.208 50.101 227.208C48.7663 227.208 47.553 226.978 46.461 226.519C45.369 226.051 44.4373 225.401 43.666 224.569C42.8947 223.728 42.2967 222.723 41.872 221.553C41.4473 220.383 41.235 219.096 41.235 217.692C41.235 216.288 41.456 215.001 41.898 213.831C42.34 212.661 42.9597 211.656 43.757 210.815C44.563 209.974 45.525 209.324 46.643 208.865C47.761 208.397 48.996 208.163 50.348 208.163C51.674 208.163 52.844 208.375 53.858 208.8C54.872 209.225 55.7647 209.801 56.536 210.529L55.704 211.686C55.652 211.773 55.5827 211.846 55.496 211.907C55.418 211.959 55.3097 211.985 55.171 211.985C55.015 211.985 54.8243 211.903 54.599 211.738C54.3737 211.565 54.079 211.374 53.715 211.166C53.351 210.958 52.896 210.772 52.35 210.607C51.804 210.434 51.1323 210.347 50.335 210.347C49.373 210.347 48.4933 210.516 47.696 210.854C46.8987 211.183 46.2097 211.664 45.629 212.297C45.057 212.93 44.6107 213.701 44.29 214.611C43.9693 215.521 43.809 216.548 43.809 217.692C43.809 218.853 43.9737 219.889 44.303 220.799C44.641 221.709 45.096 222.48 45.668 223.113C46.2487 223.737 46.929 224.214 47.709 224.543C48.4977 224.872 49.347 225.037 50.257 225.037C50.8117 225.037 51.31 225.007 51.752 224.946C52.2027 224.877 52.6143 224.773 52.987 224.634C53.3683 224.495 53.7193 224.322 54.04 224.114C54.3693 223.897 54.6943 223.642 55.015 223.347C55.1623 223.217 55.3097 223.152 55.457 223.152ZM64.4973 213.623C65.4593 213.623 66.3259 213.783 67.0973 214.104C67.8686 214.425 68.5273 214.88 69.0733 215.469C69.6193 216.058 70.0353 216.773 70.3213 217.614C70.6159 218.446 70.7633 219.378 70.7633 220.409C70.7633 221.449 70.6159 222.385 70.3213 223.217C70.0353 224.049 69.6193 224.76 69.0733 225.349C68.5273 225.938 67.8686 226.393 67.0973 226.714C66.3259 227.026 65.4593 227.182 64.4973 227.182C63.5266 227.182 62.6513 227.026 61.8713 226.714C61.0999 226.393 60.4413 225.938 59.8953 225.349C59.3493 224.76 58.9289 224.049 58.6343 223.217C58.3483 222.385 58.2053 221.449 58.2053 220.409C58.2053 219.378 58.3483 218.446 58.6343 217.614C58.9289 216.773 59.3493 216.058 59.8953 215.469C60.4413 214.88 61.0999 214.425 61.8713 214.104C62.6513 213.783 63.5266 213.623 64.4973 213.623ZM64.4973 225.375C65.7973 225.375 66.7679 224.942 67.4093 224.075C68.0506 223.2 68.3713 221.982 68.3713 220.422C68.3713 218.853 68.0506 217.631 67.4093 216.756C66.7679 215.881 65.7973 215.443 64.4973 215.443C63.8386 215.443 63.2623 215.556 62.7683 215.781C62.2829 216.006 61.8756 216.331 61.5463 216.756C61.2256 217.181 60.9829 217.705 60.8183 218.329C60.6623 218.944 60.5843 219.642 60.5843 220.422C60.5843 221.982 60.9049 223.2 61.5463 224.075C62.1963 224.942 63.1799 225.375 64.4973 225.375ZM81.3682 216.002C81.2642 216.193 81.1039 216.288 80.8872 216.288C80.7572 216.288 80.6099 216.24 80.4452 216.145C80.2806 216.05 80.0769 215.946 79.8342 215.833C79.6002 215.712 79.3186 215.603 78.9892 215.508C78.6599 215.404 78.2699 215.352 77.8192 215.352C77.4292 215.352 77.0782 215.404 76.7662 215.508C76.4542 215.603 76.1856 215.738 75.9602 215.911C75.7436 216.084 75.5746 216.288 75.4532 216.522C75.3406 216.747 75.2842 216.994 75.2842 217.263C75.2842 217.601 75.3796 217.883 75.5702 218.108C75.7696 218.333 76.0296 218.528 76.3502 218.693C76.6709 218.858 77.0349 219.005 77.4422 219.135C77.8496 219.256 78.2656 219.391 78.6902 219.538C79.1236 219.677 79.5439 219.833 79.9512 220.006C80.3586 220.179 80.7226 220.396 81.0432 220.656C81.3639 220.916 81.6196 221.237 81.8102 221.618C82.0096 221.991 82.1092 222.441 82.1092 222.97C82.1092 223.577 82.0009 224.14 81.7842 224.66C81.5676 225.171 81.2469 225.618 80.8222 225.999C80.3976 226.372 79.8776 226.666 79.2622 226.883C78.6469 227.1 77.9362 227.208 77.1302 227.208C76.2116 227.208 75.3796 227.061 74.6342 226.766C73.8889 226.463 73.2562 226.077 72.7362 225.609L73.2822 224.725C73.3516 224.612 73.4339 224.526 73.5292 224.465C73.6246 224.404 73.7459 224.374 73.8932 224.374C74.0492 224.374 74.2139 224.435 74.3872 224.556C74.5606 224.677 74.7686 224.812 75.0112 224.959C75.2626 225.106 75.5659 225.241 75.9212 225.362C76.2766 225.483 76.7186 225.544 77.2472 225.544C77.6979 225.544 78.0922 225.488 78.4302 225.375C78.7682 225.254 79.0499 225.093 79.2752 224.894C79.5006 224.695 79.6652 224.465 79.7692 224.205C79.8819 223.945 79.9382 223.668 79.9382 223.373C79.9382 223.009 79.8386 222.71 79.6392 222.476C79.4486 222.233 79.1929 222.03 78.8722 221.865C78.5516 221.692 78.1832 221.544 77.7672 221.423C77.3599 221.293 76.9396 221.159 76.5062 221.02C76.0816 220.881 75.6612 220.725 75.2452 220.552C74.8379 220.37 74.4739 220.145 74.1532 219.876C73.8326 219.607 73.5726 219.278 73.3732 218.888C73.1826 218.489 73.0872 218.008 73.0872 217.445C73.0872 216.942 73.1912 216.461 73.3992 216.002C73.6072 215.534 73.9106 215.127 74.3092 214.78C74.7079 214.425 75.1976 214.143 75.7782 213.935C76.3589 213.727 77.0219 213.623 77.7672 213.623C78.6339 213.623 79.4096 213.762 80.0942 214.039C80.7876 214.308 81.3856 214.68 81.8882 215.157L81.3682 216.002ZM88.9893 227.208C87.9493 227.208 87.1476 226.918 86.5843 226.337C86.0296 225.756 85.7523 224.92 85.7523 223.828V215.768H84.1663C84.0276 215.768 83.9106 215.729 83.8153 215.651C83.7199 215.564 83.6723 215.434 83.6723 215.261V214.338L85.8303 214.065L86.3633 209.996C86.3893 209.866 86.4456 209.762 86.5323 209.684C86.6276 209.597 86.7489 209.554 86.8963 209.554H88.0663V214.091H91.8753V215.768H88.0663V223.672C88.0663 224.227 88.2006 224.638 88.4693 224.907C88.7379 225.176 89.0846 225.31 89.5093 225.31C89.7519 225.31 89.9599 225.28 90.1333 225.219C90.3153 225.15 90.4713 225.076 90.6013 224.998C90.7313 224.92 90.8396 224.851 90.9263 224.79C91.0216 224.721 91.1039 224.686 91.1733 224.686C91.2946 224.686 91.4029 224.76 91.4983 224.907L92.1743 226.012C91.7756 226.385 91.2946 226.679 90.7313 226.896C90.1679 227.104 89.5873 227.208 88.9893 227.208ZM101.935 216.002C101.831 216.193 101.67 216.288 101.454 216.288C101.324 216.288 101.176 216.24 101.012 216.145C100.847 216.05 100.643 215.946 100.401 215.833C100.167 215.712 99.885 215.603 99.5556 215.508C99.2263 215.404 98.8363 215.352 98.3856 215.352C97.9956 215.352 97.6446 215.404 97.3326 215.508C97.0206 215.603 96.752 215.738 96.5266 215.911C96.31 216.084 96.141 216.288 96.0196 216.522C95.907 216.747 95.8506 216.994 95.8506 217.263C95.8506 217.601 95.946 217.883 96.1366 218.108C96.336 218.333 96.596 218.528 96.9166 218.693C97.2373 218.858 97.6013 219.005 98.0086 219.135C98.416 219.256 98.832 219.391 99.2566 219.538C99.69 219.677 100.11 219.833 100.518 220.006C100.925 220.179 101.289 220.396 101.61 220.656C101.93 220.916 102.186 221.237 102.377 221.618C102.576 221.991 102.676 222.441 102.676 222.97C102.676 223.577 102.567 224.14 102.351 224.66C102.134 225.171 101.813 225.618 101.389 225.999C100.964 226.372 100.444 226.666 99.8286 226.883C99.2133 227.1 98.5026 227.208 97.6966 227.208C96.778 227.208 95.946 227.061 95.2006 226.766C94.4553 226.463 93.8226 226.077 93.3026 225.609L93.8486 224.725C93.918 224.612 94.0003 224.526 94.0956 224.465C94.191 224.404 94.3123 224.374 94.4596 224.374C94.6156 224.374 94.7803 224.435 94.9536 224.556C95.127 224.677 95.335 224.812 95.5776 224.959C95.829 225.106 96.1323 225.241 96.4876 225.362C96.843 225.483 97.285 225.544 97.8136 225.544C98.2643 225.544 98.6586 225.488 98.9966 225.375C99.3346 225.254 99.6163 225.093 99.8416 224.894C100.067 224.695 100.232 224.465 100.336 224.205C100.448 223.945 100.505 223.668 100.505 223.373C100.505 223.009 100.405 222.71 100.206 222.476C100.015 222.233 99.7593 222.03 99.4386 221.865C99.118 221.692 98.7496 221.544 98.3336 221.423C97.9263 221.293 97.506 221.159 97.0726 221.02C96.648 220.881 96.2276 220.725 95.8116 220.552C95.4043 220.37 95.0403 220.145 94.7196 219.876C94.399 219.607 94.139 219.278 93.9396 218.888C93.749 218.489 93.6536 218.008 93.6536 217.445C93.6536 216.942 93.7576 216.461 93.9656 216.002C94.1736 215.534 94.477 215.127 94.8756 214.78C95.2743 214.425 95.764 214.143 96.3446 213.935C96.9253 213.727 97.5883 213.623 98.3336 213.623C99.2003 213.623 99.976 213.762 100.661 214.039C101.354 214.308 101.952 214.68 102.455 215.157L101.935 216.002Z" fill="#FF7D3B"/>
</svg>
